<svg width="200" height="200" xmlns="http://www.w3.org/2000/svg">
<line x1="10" y1="100.0" x2="190" y2="100.0" stroke="black"/>
<line x1="100.0" y1="10" x2="100.0" y2="190" stroke="black"/>
<path d="M35.8 78.4l7 7m0 -7l-7 7" fill="none" stroke="red"/>
<text x="43.8" y="76.4" font-size="12" fill="black">&lt;&gt;</text>
<path d="M95.4 11.2l7 7m0 -7l-7 7" fill="none" stroke="red"/>
<text x="103.4" y="9.2" font-size="12" fill="black">are</text>
<path d="M187.0 93.2l7 7m0 -7l-7 7" fill="none" stroke="red"/>
<text x="195.0" y="91.2" font-size="12" fill="black">eat</text>
<path d="M112.4 148.1l7 7m0 -7l-7 7" fill="none" stroke="red"/>
<text x="120.4" y="146.1" font-size="12" fill="black">grass</text>
<path d="M112.4 148.1l7 7m0 -7l-7 7" fill="none" stroke="red"/>
<text x="120.4" y="146.1" font-size="12" fill="black">herbivores</text>
<path d="M150.1 55.4l7 7m0 -7l-7 7" fill="none" stroke="red"/>
<text x="158.1" y="53.4" font-size="12" fill="black">like</text>
<path d="M37.6 154.6l7 7m0 -7l-7 7" fill="none" stroke="red"/>
<text x="45.6" y="152.6" font-size="12" fill="black">sheep</text>
<path d="M112.4 148.1l7 7m0 -7l-7 7" fill="none" stroke="red"/>
<text x="120.4" y="146.1" font-size="12" fill="black">wooly</text>
</svg>