<svg xmlns="http://www.w3.org/2000/svg" width="540" height="300">
<style>
    .node { fill: #ccc; stroke: white; stroke-width: 2; }
    .node-activation { stroke: white; stroke-width: 0.5; }
    .edge { stroke-width: 2; }
    text { font-family: sans-serif; font-size: 12px; fill: black; alignment-baseline: middle; }
</style>

	<line class="edge" x1="120" y1="30.0" x2="270" y2="120.0" stroke="red" opacity="0.15"/>
	<line class="edge" x1="120" y1="90.0" x2="270" y2="120.0" stroke="red" opacity="0.25"/>
	<line class="edge" x1="120" y1="150.0" x2="270" y2="120.0" stroke="red" opacity="0.25"/>
	<line class="edge" x1="120" y1="210.0" x2="270" y2="120.0" stroke="red" opacity="0.25"/>
	<line class="edge" x1="120" y1="270.0" x2="270" y2="120.0" stroke="red" opacity="0.25"/>
	<line class="edge" x1="120" y1="30.0" x2="270" y2="180.0" stroke="red" opacity="0.18"/>
	<line class="edge" x1="120" y1="90.0" x2="270" y2="180.0" stroke="red" opacity="0.25"/>
	<line class="edge" x1="120" y1="150.0" x2="270" y2="180.0" stroke="red" opacity="0.25"/>
	<line class="edge" x1="120" y1="210.0" x2="270" y2="180.0" stroke="red" opacity="0.25"/>
	<line class="edge" x1="120" y1="270.0" x2="270" y2="180.0" stroke="red" opacity="0.25"/>
	<line class="edge" x1="270" y1="120.0" x2="420" y2="30.0" stroke="blue" opacity="0.35"/>
	<line class="edge" x1="270" y1="180.0" x2="420" y2="30.0" stroke="red" opacity="0.16"/>
	<line class="edge" x1="270" y1="120.0" x2="420" y2="90.0" stroke="blue" opacity="0.33"/>
	<line class="edge" x1="270" y1="180.0" x2="420" y2="90.0" stroke="blue" opacity="0.42"/>
	<line class="edge" x1="270" y1="120.0" x2="420" y2="150.0" stroke="red" opacity="0.10"/>
	<line class="edge" x1="270" y1="180.0" x2="420" y2="150.0" stroke="red" opacity="0.11"/>
	<line class="edge" x1="270" y1="120.0" x2="420" y2="210.0" stroke="red" opacity="0.11"/>
	<line class="edge" x1="270" y1="180.0" x2="420" y2="210.0" stroke="red" opacity="0.12"/>
	<line class="edge" x1="270" y1="120.0" x2="420" y2="270.0" stroke="red" opacity="0.17"/>
	<line class="edge" x1="270" y1="180.0" x2="420" y2="270.0" stroke="red" opacity="0.21"/>
	<g transform="translate(120 30.0)">
            <circle class="node" cx="0" cy="0" r="20" />
            <circle class="node-activation" cx="0" cy="0" r="20.0" fill="#48f" />
            <text x="0" y="0" text-anchor="middle">1.00</text>
        </g>
	<circle  class="node" cx="120" cy="90.0" r="20" />
	<circle  class="node" cx="120" cy="150.0" r="20" />
	<circle  class="node" cx="120" cy="210.0" r="20" />
	<circle  class="node" cx="120" cy="270.0" r="20" />
	<g transform="translate(270 120.0)">
            <circle class="node" cx="0" cy="0" r="20" />
            <circle class="node-activation" cx="0" cy="0" r="9.2" fill="#48f" />
            <text x="0" y="0" text-anchor="middle">0.46</text>
        </g>
	<g transform="translate(270 180.0)">
            <circle class="node" cx="0" cy="0" r="20" />
            <circle class="node-activation" cx="0" cy="0" r="8.5" fill="#48f" />
            <text x="0" y="0" text-anchor="middle">0.43</text>
        </g>
	<g transform="translate(420 30.0)">
            <circle class="node" cx="0" cy="0" r="20" />
            <circle class="node-activation" cx="0" cy="0" r="3.2" fill="#48f" />
            <text x="0" y="0" text-anchor="middle">0.16</text>
        </g>
	<g transform="translate(420 90.0)">
            <circle class="node" cx="0" cy="0" r="20" />
            <circle class="node-activation" cx="0" cy="0" r="2.0" fill="#48f" />
            <text x="0" y="0" text-anchor="middle">0.10</text>
        </g>
	<g transform="translate(420 150.0)">
            <circle class="node" cx="0" cy="0" r="20" />
            <circle class="node-activation" cx="0" cy="0" r="2.5" fill="#48f" />
            <text x="0" y="0" text-anchor="middle">0.12</text>
        </g>
	<g transform="translate(420 210.0)">
            <circle class="node" cx="0" cy="0" r="20" />
            <circle class="node-activation" cx="0" cy="0" r="3.4" fill="#48f" />
            <text x="0" y="0" text-anchor="middle">0.17</text>
        </g>
	<g transform="translate(420 270.0)">
            <circle class="node" cx="0" cy="0" r="20" />
            <circle class="node-activation" cx="0" cy="0" r="8.9" fill="#48f" />
            <text x="0" y="0" text-anchor="middle">0.44</text>
        </g>
	<text x="95" y="30.0" text-anchor="end">&lt;&gt;</text>
	<text x="95" y="90.0" text-anchor="end">are</text>
	<text x="95" y="150.0" text-anchor="end">herbivores</text>
	<text x="95" y="210.0" text-anchor="end">meek</text>
	<text x="95" y="270.0" text-anchor="end">sheep</text>
	<text x="445" y="30.0" >&lt;&gt;</text>
	<text x="445" y="90.0" >are</text>
	<text x="445" y="150.0" >herbivores</text>
	<text x="445" y="210.0" >meek</text>
	<text x="445" y="270.0" >sheep</text>
</svg>