<svg xmlns="http://www.w3.org/2000/svg" width="540" height="300">
<style>
    .node { fill: #ccc; stroke: white; stroke-width: 2; }
    line { stroke-width: 2; }
    text { font-family: sans-serif; font-size: 12px; fill: black; alignment-baseline: middle; }
</style>

	<line x1="120" y1="30.0" x2="270" y2="120.0" stroke="red" opacity="0.07"/>
	<line x1="120" y1="90.0" x2="270" y2="120.0" stroke="blue" opacity="0.57"/>
	<line x1="120" y1="150.0" x2="270" y2="120.0" stroke="red" opacity="0.10"/>
	<line x1="120" y1="210.0" x2="270" y2="120.0" stroke="red" opacity="0.08"/>
	<line x1="120" y1="270.0" x2="270" y2="120.0" stroke="blue" opacity="0.45"/>
	<line x1="120" y1="30.0" x2="270" y2="180.0" stroke="blue" opacity="0.52"/>
	<line x1="120" y1="90.0" x2="270" y2="180.0" stroke="red" opacity="0.08"/>
	<line x1="120" y1="150.0" x2="270" y2="180.0" stroke="red" opacity="0.10"/>
	<line x1="120" y1="210.0" x2="270" y2="180.0" stroke="red" opacity="0.07"/>
	<line x1="120" y1="270.0" x2="270" y2="180.0" stroke="blue" opacity="0.49"/>
	<line x1="270" y1="120.0" x2="420" y2="30.0" stroke="red" opacity="0.07"/>
	<line x1="270" y1="180.0" x2="420" y2="30.0" stroke="red" opacity="0.02"/>
	<line x1="270" y1="120.0" x2="420" y2="90.0" stroke="blue" opacity="0.41"/>
	<line x1="270" y1="180.0" x2="420" y2="90.0" stroke="blue" opacity="0.66"/>
	<line x1="270" y1="120.0" x2="420" y2="150.0" stroke="blue" opacity="0.49"/>
	<line x1="270" y1="180.0" x2="420" y2="150.0" stroke="red" opacity="0.03"/>
	<line x1="270" y1="120.0" x2="420" y2="210.0" stroke="blue" opacity="0.66"/>
	<line x1="270" y1="180.0" x2="420" y2="210.0" stroke="red" opacity="0.04"/>
	<line x1="270" y1="120.0" x2="420" y2="270.0" stroke="red" opacity="0.04"/>
	<line x1="270" y1="180.0" x2="420" y2="270.0" stroke="blue" opacity="0.53"/>
	<circle  class="node" cx="120" cy="30.0" r="20" />
	<g transform="translate(120 90.0)">
            <circle class="node" cx="0" cy="0" r="20" />
            <circle cx="0" cy="0" r="20.0" fill="#38f" />
            <text x="0" y="0" text-anchor="middle">1.00</text>
        </g>
	<circle  class="node" cx="120" cy="150.0" r="20" />
	<circle  class="node" cx="120" cy="210.0" r="20" />
	<circle  class="node" cx="120" cy="270.0" r="20" />
	<g transform="translate(270 120.0)">
            <circle class="node" cx="0" cy="0" r="20" />
            <circle cx="0" cy="0" r="14.5" fill="#38f" />
            <text x="0" y="0" text-anchor="middle">0.72</text>
        </g>
	<g transform="translate(270 180.0)">
            <circle class="node" cx="0" cy="0" r="20" />
            <circle cx="0" cy="0" r="6.9" fill="#38f" />
            <text x="0" y="0" text-anchor="middle">0.35</text>
        </g>
	<g transform="translate(420 30.0)">
            <circle class="node" cx="0" cy="0" r="20" />
            <circle cx="0" cy="0" r="2.5" fill="#38f" />
            <text x="0" y="0" text-anchor="middle">0.12</text>
        </g>
	<g transform="translate(420 90.0)">
            <circle class="node" cx="0" cy="0" r="20" />
            <circle cx="0" cy="0" r="0.7" fill="#38f" />
            <text x="0" y="0" text-anchor="middle">0.03</text>
        </g>
	<g transform="translate(420 150.0)">
            <circle class="node" cx="0" cy="0" r="20" />
            <circle cx="0" cy="0" r="8.0" fill="#38f" />
            <text x="0" y="0" text-anchor="middle">0.40</text>
        </g>
	<g transform="translate(420 210.0)">
            <circle class="node" cx="0" cy="0" r="20" />
            <circle cx="0" cy="0" r="8.8" fill="#38f" />
            <text x="0" y="0" text-anchor="middle">0.44</text>
        </g>
	<circle  class="node" cx="420" cy="270.0" r="20" />
	<text x="95" y="30.0" text-anchor="end">&lt;&gt;</text>
	<text x="95" y="90.0" text-anchor="end">are</text>
	<text x="95" y="150.0" text-anchor="end">herbivores</text>
	<text x="95" y="210.0" text-anchor="end">meek</text>
	<text x="95" y="270.0" text-anchor="end">sheep</text>
	<text x="445" y="30.0" >&lt;&gt;</text>
	<text x="445" y="90.0" >are</text>
	<text x="445" y="150.0" >herbivores</text>
	<text x="445" y="210.0" >meek</text>
	<text x="445" y="270.0" >sheep</text>
</svg>