<svg xmlns="http://www.w3.org/2000/svg" width="540" height="300">
<style>
    .activation { display: none; pointer-events: none; }
    .click-box {fill-opacity: 0;}
    .edge { stroke-width: 2; }
    .node { fill: #ccc; stroke: white; stroke-width: 2; }
    .node-activation { stroke: white; stroke-width: 0.5; }
    text { font-family: sans-serif; font-size: 12px; fill: black; alignment-baseline: middle; }
</style>
<g class="weights">
	<line class="edge" x1="120" y1="30.0" x2="270" y2="120.0" stroke="blue" opacity="0.82"/>
	<line class="edge" x1="120" y1="90.0" x2="270" y2="120.0" stroke="blue" opacity="0.80"/>
	<line class="edge" x1="120" y1="150.0" x2="270" y2="120.0" stroke="red" opacity="0.82"/>
	<line class="edge" x1="120" y1="210.0" x2="270" y2="120.0" stroke="red" opacity="0.65"/>
	<line class="edge" x1="120" y1="270.0" x2="270" y2="120.0" stroke="red" opacity="0.60"/>
	<line class="edge" x1="120" y1="30.0" x2="270" y2="180.0" stroke="red" opacity="0.41"/>
	<line class="edge" x1="120" y1="90.0" x2="270" y2="180.0" stroke="blue" opacity="0.90"/>
	<line class="edge" x1="120" y1="150.0" x2="270" y2="180.0" stroke="blue" opacity="0.41"/>
	<line class="edge" x1="120" y1="210.0" x2="270" y2="180.0" stroke="red" opacity="0.90"/>
	<line class="edge" x1="120" y1="270.0" x2="270" y2="180.0" stroke="red" opacity="0.01"/>
	<line class="edge" x1="270" y1="120.0" x2="420" y2="30.0" stroke="red" opacity="0.89"/>
	<line class="edge" x1="270" y1="180.0" x2="420" y2="30.0" stroke="blue" opacity="0.18"/>
	<line class="edge" x1="270" y1="120.0" x2="420" y2="90.0" stroke="red" opacity="0.88"/>
	<line class="edge" x1="270" y1="180.0" x2="420" y2="90.0" stroke="red" opacity="0.84"/>
	<line class="edge" x1="270" y1="120.0" x2="420" y2="150.0" stroke="blue" opacity="0.87"/>
	<line class="edge" x1="270" y1="180.0" x2="420" y2="150.0" stroke="blue" opacity="0.31"/>
	<line class="edge" x1="270" y1="120.0" x2="420" y2="210.0" stroke="blue" opacity="0.92"/>
	<line class="edge" x1="270" y1="180.0" x2="420" y2="210.0" stroke="red" opacity="0.63"/>
	<line class="edge" x1="270" y1="120.0" x2="420" y2="270.0" stroke="blue" opacity="0.75"/>
	<line class="edge" x1="270" y1="180.0" x2="420" y2="270.0" stroke="blue" opacity="0.87"/>
</g>
	<circle class="node" cx="120" cy="30.0" r="20" />
	<circle class="node" cx="120" cy="90.0" r="20" />
	<circle class="node" cx="120" cy="150.0" r="20" />
	<circle class="node" cx="120" cy="210.0" r="20" />
	<circle class="node" cx="120" cy="270.0" r="20" />
	<circle class="node" cx="270" cy="120.0" r="20" />
	<circle class="node" cx="270" cy="180.0" r="20" />
	<circle class="node" cx="420" cy="30.0" r="20" />
	<circle class="node" cx="420" cy="90.0" r="20" />
	<circle class="node" cx="420" cy="150.0" r="20" />
	<circle class="node" cx="420" cy="210.0" r="20" />
	<circle class="node" cx="420" cy="270.0" r="20" />
	<text x="95" y="30.0" text-anchor="end">&lt;&gt;</text>
	<text x="95" y="90.0" text-anchor="end">are</text>
	<text x="95" y="150.0" text-anchor="end">herbivores</text>
	<text x="95" y="210.0" text-anchor="end">sheep</text>
	<text x="95" y="270.0" text-anchor="end">wooly</text>
	<text x="445" y="30.0" >&lt;&gt;</text>
	<text x="445" y="90.0" >are</text>
	<text x="445" y="150.0" >herbivores</text>
	<text x="445" y="210.0" >sheep</text>
	<text x="445" y="270.0" >wooly</text>
	<rect id="click-box-0" class="click-box" x="40" width="100" height="40" y="10.0" />
	<rect id="click-box-1" class="click-box" x="40" width="100" height="40" y="70.0" />
	<rect id="click-box-2" class="click-box" x="40" width="100" height="40" y="130.0" />
	<rect id="click-box-3" class="click-box" x="40" width="100" height="40" y="190.0" />
	<rect id="click-box-4" class="click-box" x="40" width="100" height="40" y="250.0" /><g id="activation-0" class="activation">
	<line class="edge" x1="120" y1="30.0" x2="270" y2="120.0" stroke="blue" opacity="0.82"/>
	<line class="edge" x1="120" y1="30.0" x2="270" y2="180.0" stroke="red" opacity="0.41"/>
	<line class="edge" x1="270" y1="120.0" x2="420" y2="30.0" stroke="red" opacity="0.76"/>
	<line class="edge" x1="270" y1="180.0" x2="420" y2="30.0" stroke="blue" opacity="0.07"/>
	<line class="edge" x1="270" y1="120.0" x2="420" y2="90.0" stroke="red" opacity="0.74"/>
	<line class="edge" x1="270" y1="180.0" x2="420" y2="90.0" stroke="red" opacity="0.43"/>
	<line class="edge" x1="270" y1="120.0" x2="420" y2="150.0" stroke="blue" opacity="0.73"/>
	<line class="edge" x1="270" y1="180.0" x2="420" y2="150.0" stroke="blue" opacity="0.12"/>
	<line class="edge" x1="270" y1="120.0" x2="420" y2="210.0" stroke="blue" opacity="0.79"/>
	<line class="edge" x1="270" y1="180.0" x2="420" y2="210.0" stroke="red" opacity="0.27"/>
	<line class="edge" x1="270" y1="120.0" x2="420" y2="270.0" stroke="blue" opacity="0.58"/>
	<line class="edge" x1="270" y1="180.0" x2="420" y2="270.0" stroke="blue" opacity="0.46"/>
	<g transform="translate(120 30.0)">
            <circle class="node" cx="0" cy="0" r="20" />
            <circle class="node-activation" cx="0" cy="0" r="20.0" fill="#48f" />
            <text x="0" y="0" text-anchor="middle">1.00</text>
</g>
	<circle class="node" cx="120" cy="90.0" r="20" />
	<circle class="node" cx="120" cy="150.0" r="20" />
	<circle class="node" cx="120" cy="210.0" r="20" />
	<circle class="node" cx="120" cy="270.0" r="20" />
	<g transform="translate(270 120.0)">
            <circle class="node" cx="0" cy="0" r="20" />
            <circle class="node-activation" cx="0" cy="0" r="13.8" fill="#48f" />
            <text x="0" y="0" text-anchor="middle">0.69</text>
</g>
	<g transform="translate(270 180.0)">
            <circle class="node" cx="0" cy="0" r="20" />
            <circle class="node-activation" cx="0" cy="0" r="7.5" fill="#48f" />
            <text x="0" y="0" text-anchor="middle">0.37</text>
</g>
	<g transform="translate(420 30.0)">
            <circle class="node" cx="0" cy="0" r="20" />
            <circle class="node-activation" cx="0" cy="0" r="0.6" fill="#48f" />
            <text x="0" y="0" text-anchor="middle">0.03</text>
</g>
	<g transform="translate(420 90.0)">
            <circle class="node" cx="0" cy="0" r="20" />
            <circle class="node-activation" cx="0" cy="0" r="0.5" fill="#48f" />
            <text x="0" y="0" text-anchor="middle">0.03</text>
</g>
	<g transform="translate(420 150.0)">
            <circle class="node" cx="0" cy="0" r="20" />
            <circle class="node-activation" cx="0" cy="0" r="3.3" fill="#48f" />
            <text x="0" y="0" text-anchor="middle">0.17</text>
</g>
	<g transform="translate(420 210.0)">
            <circle class="node" cx="0" cy="0" r="20" />
            <circle class="node-activation" cx="0" cy="0" r="14.9" fill="#48f" />
            <text x="0" y="0" text-anchor="middle">0.74</text>
</g>
	<g transform="translate(420 270.0)">
            <circle class="node" cx="0" cy="0" r="20" />
            <circle class="node-activation" cx="0" cy="0" r="0.7" fill="#48f" />
            <text x="0" y="0" text-anchor="middle">0.03</text>
</g>
</g><g id="activation-1" class="activation">
	<line class="edge" x1="120" y1="90.0" x2="270" y2="120.0" stroke="blue" opacity="0.80"/>
	<line class="edge" x1="120" y1="90.0" x2="270" y2="180.0" stroke="blue" opacity="0.90"/>
	<line class="edge" x1="270" y1="120.0" x2="420" y2="30.0" stroke="red" opacity="0.75"/>
	<line class="edge" x1="270" y1="180.0" x2="420" y2="30.0" stroke="blue" opacity="0.15"/>
	<line class="edge" x1="270" y1="120.0" x2="420" y2="90.0" stroke="red" opacity="0.73"/>
	<line class="edge" x1="270" y1="180.0" x2="420" y2="90.0" stroke="red" opacity="0.75"/>
	<line class="edge" x1="270" y1="120.0" x2="420" y2="150.0" stroke="blue" opacity="0.72"/>
	<line class="edge" x1="270" y1="180.0" x2="420" y2="150.0" stroke="blue" opacity="0.25"/>
	<line class="edge" x1="270" y1="120.0" x2="420" y2="210.0" stroke="blue" opacity="0.78"/>
	<line class="edge" x1="270" y1="180.0" x2="420" y2="210.0" stroke="red" opacity="0.53"/>
	<line class="edge" x1="270" y1="120.0" x2="420" y2="270.0" stroke="blue" opacity="0.57"/>
	<line class="edge" x1="270" y1="180.0" x2="420" y2="270.0" stroke="blue" opacity="0.79"/>
	<circle class="node" cx="120" cy="30.0" r="20" />
	<g transform="translate(120 90.0)">
            <circle class="node" cx="0" cy="0" r="20" />
            <circle class="node-activation" cx="0" cy="0" r="20.0" fill="#48f" />
            <text x="0" y="0" text-anchor="middle">1.00</text>
</g>
	<circle class="node" cx="120" cy="150.0" r="20" />
	<circle class="node" cx="120" cy="210.0" r="20" />
	<circle class="node" cx="120" cy="270.0" r="20" />
	<g transform="translate(270 120.0)">
            <circle class="node" cx="0" cy="0" r="20" />
            <circle class="node-activation" cx="0" cy="0" r="13.5" fill="#48f" />
            <text x="0" y="0" text-anchor="middle">0.68</text>
</g>
	<g transform="translate(270 180.0)">
            <circle class="node" cx="0" cy="0" r="20" />
            <circle class="node-activation" cx="0" cy="0" r="15.9" fill="#48f" />
            <text x="0" y="0" text-anchor="middle">0.80</text>
</g>
	<g transform="translate(420 30.0)">
            <circle class="node" cx="0" cy="0" r="20" />
            <circle class="node-activation" cx="0" cy="0" r="1.0" fill="#48f" />
            <text x="0" y="0" text-anchor="middle">0.05</text>
</g>
	<circle class="node" cx="420" cy="90.0" r="20" />
	<g transform="translate(420 150.0)">
            <circle class="node" cx="0" cy="0" r="20" />
            <circle class="node-activation" cx="0" cy="0" r="6.2" fill="#48f" />
            <text x="0" y="0" text-anchor="middle">0.31</text>
</g>
	<g transform="translate(420 210.0)">
            <circle class="node" cx="0" cy="0" r="20" />
            <circle class="node-activation" cx="0" cy="0" r="3.7" fill="#48f" />
            <text x="0" y="0" text-anchor="middle">0.18</text>
</g>
	<g transform="translate(420 270.0)">
            <circle class="node" cx="0" cy="0" r="20" />
            <circle class="node-activation" cx="0" cy="0" r="9.1" fill="#48f" />
            <text x="0" y="0" text-anchor="middle">0.45</text>
</g>
</g><g id="activation-2" class="activation">
	<line class="edge" x1="120" y1="150.0" x2="270" y2="120.0" stroke="red" opacity="0.82"/>
	<line class="edge" x1="120" y1="150.0" x2="270" y2="180.0" stroke="blue" opacity="0.41"/>
	<line class="edge" x1="270" y1="120.0" x2="420" y2="30.0" stroke="red" opacity="0.26"/>
	<line class="edge" x1="270" y1="180.0" x2="420" y2="30.0" stroke="blue" opacity="0.11"/>
	<line class="edge" x1="270" y1="120.0" x2="420" y2="90.0" stroke="red" opacity="0.25"/>
	<line class="edge" x1="270" y1="180.0" x2="420" y2="90.0" stroke="red" opacity="0.62"/>
	<line class="edge" x1="270" y1="120.0" x2="420" y2="150.0" stroke="blue" opacity="0.24"/>
	<line class="edge" x1="270" y1="180.0" x2="420" y2="150.0" stroke="blue" opacity="0.18"/>
	<line class="edge" x1="270" y1="120.0" x2="420" y2="210.0" stroke="blue" opacity="0.28"/>
	<line class="edge" x1="270" y1="180.0" x2="420" y2="210.0" stroke="red" opacity="0.41"/>
	<line class="edge" x1="270" y1="120.0" x2="420" y2="270.0" stroke="blue" opacity="0.17"/>
	<line class="edge" x1="270" y1="180.0" x2="420" y2="270.0" stroke="blue" opacity="0.66"/>
	<circle class="node" cx="120" cy="30.0" r="20" />
	<circle class="node" cx="120" cy="90.0" r="20" />
	<g transform="translate(120 150.0)">
            <circle class="node" cx="0" cy="0" r="20" />
            <circle class="node-activation" cx="0" cy="0" r="20.0" fill="#48f" />
            <text x="0" y="0" text-anchor="middle">1.00</text>
</g>
	<circle class="node" cx="120" cy="210.0" r="20" />
	<circle class="node" cx="120" cy="270.0" r="20" />
	<g transform="translate(270 120.0)">
            <circle class="node" cx="0" cy="0" r="20" />
            <circle class="node-activation" cx="0" cy="0" r="3.6" fill="#48f" />
            <text x="0" y="0" text-anchor="middle">0.18</text>
</g>
	<g transform="translate(270 180.0)">
            <circle class="node" cx="0" cy="0" r="20" />
            <circle class="node-activation" cx="0" cy="0" r="11.7" fill="#48f" />
            <text x="0" y="0" text-anchor="middle">0.59</text>
</g>
	<g transform="translate(420 30.0)">
            <circle class="node" cx="0" cy="0" r="20" />
            <circle class="node-activation" cx="0" cy="0" r="15.7" fill="#48f" />
            <text x="0" y="0" text-anchor="middle">0.79</text>
</g>
	<g transform="translate(420 90.0)">
            <circle class="node" cx="0" cy="0" r="20" />
            <circle class="node-activation" cx="0" cy="0" r="3.7" fill="#48f" />
            <text x="0" y="0" text-anchor="middle">0.19</text>
</g>
	<circle class="node" cx="420" cy="150.0" r="20" />
	<circle class="node" cx="420" cy="210.0" r="20" />
	<g transform="translate(420 270.0)">
            <circle class="node" cx="0" cy="0" r="20" />
            <circle class="node-activation" cx="0" cy="0" r="0.2" fill="#48f" />
            <text x="0" y="0" text-anchor="middle">0.01</text>
</g>
</g><g id="activation-3" class="activation">
	<line class="edge" x1="120" y1="210.0" x2="270" y2="120.0" stroke="red" opacity="0.65"/>
	<line class="edge" x1="120" y1="210.0" x2="270" y2="180.0" stroke="red" opacity="0.90"/>
	<line class="edge" x1="270" y1="120.0" x2="420" y2="30.0" stroke="red" opacity="0.34"/>
	<line class="edge" x1="270" y1="180.0" x2="420" y2="30.0" stroke="blue" opacity="0.03"/>
	<line class="edge" x1="270" y1="120.0" x2="420" y2="90.0" stroke="red" opacity="0.32"/>
	<line class="edge" x1="270" y1="180.0" x2="420" y2="90.0" stroke="red" opacity="0.21"/>
	<line class="edge" x1="270" y1="120.0" x2="420" y2="150.0" stroke="blue" opacity="0.31"/>
	<line class="edge" x1="270" y1="180.0" x2="420" y2="150.0" stroke="blue" opacity="0.06"/>
	<line class="edge" x1="270" y1="120.0" x2="420" y2="210.0" stroke="blue" opacity="0.36"/>
	<line class="edge" x1="270" y1="180.0" x2="420" y2="210.0" stroke="red" opacity="0.13"/>
	<line class="edge" x1="270" y1="120.0" x2="420" y2="270.0" stroke="blue" opacity="0.23"/>
	<line class="edge" x1="270" y1="180.0" x2="420" y2="270.0" stroke="blue" opacity="0.23"/>
	<circle class="node" cx="120" cy="30.0" r="20" />
	<circle class="node" cx="120" cy="90.0" r="20" />
	<circle class="node" cx="120" cy="150.0" r="20" />
	<g transform="translate(120 210.0)">
            <circle class="node" cx="0" cy="0" r="20" />
            <circle class="node-activation" cx="0" cy="0" r="20.0" fill="#48f" />
            <text x="0" y="0" text-anchor="middle">1.00</text>
</g>
	<circle class="node" cx="120" cy="270.0" r="20" />
	<g transform="translate(270 120.0)">
            <circle class="node" cx="0" cy="0" r="20" />
            <circle class="node-activation" cx="0" cy="0" r="4.9" fill="#48f" />
            <text x="0" y="0" text-anchor="middle">0.24</text>
</g>
	<g transform="translate(270 180.0)">
            <circle class="node" cx="0" cy="0" r="20" />
            <circle class="node-activation" cx="0" cy="0" r="3.5" fill="#48f" />
            <text x="0" y="0" text-anchor="middle">0.18</text>
</g>
	<g transform="translate(420 30.0)">
            <circle class="node" cx="0" cy="0" r="20" />
            <circle class="node-activation" cx="0" cy="0" r="4.3" fill="#48f" />
            <text x="0" y="0" text-anchor="middle">0.21</text>
</g>
	<g transform="translate(420 90.0)">
            <circle class="node" cx="0" cy="0" r="20" />
            <circle class="node-activation" cx="0" cy="0" r="14.7" fill="#48f" />
            <text x="0" y="0" text-anchor="middle">0.74</text>
</g>
	<circle class="node" cx="420" cy="150.0" r="20" />
	<g transform="translate(420 210.0)">
            <circle class="node" cx="0" cy="0" r="20" />
            <circle class="node-activation" cx="0" cy="0" r="0.9" fill="#48f" />
            <text x="0" y="0" text-anchor="middle">0.04</text>
</g>
	<circle class="node" cx="420" cy="270.0" r="20" />
</g><g id="activation-4" class="activation">
	<line class="edge" x1="120" y1="270.0" x2="270" y2="120.0" stroke="red" opacity="0.60"/>
	<line class="edge" x1="120" y1="270.0" x2="270" y2="180.0" stroke="red" opacity="0.01"/>
	<line class="edge" x1="270" y1="120.0" x2="420" y2="30.0" stroke="red" opacity="0.35"/>
	<line class="edge" x1="270" y1="180.0" x2="420" y2="30.0" stroke="blue" opacity="0.09"/>
	<line class="edge" x1="270" y1="120.0" x2="420" y2="90.0" stroke="red" opacity="0.34"/>
	<line class="edge" x1="270" y1="180.0" x2="420" y2="90.0" stroke="red" opacity="0.52"/>
	<line class="edge" x1="270" y1="120.0" x2="420" y2="150.0" stroke="blue" opacity="0.33"/>
	<line class="edge" x1="270" y1="180.0" x2="420" y2="150.0" stroke="blue" opacity="0.15"/>
	<line class="edge" x1="270" y1="120.0" x2="420" y2="210.0" stroke="blue" opacity="0.38"/>
	<line class="edge" x1="270" y1="180.0" x2="420" y2="210.0" stroke="red" opacity="0.34"/>
	<line class="edge" x1="270" y1="120.0" x2="420" y2="270.0" stroke="blue" opacity="0.24"/>
	<line class="edge" x1="270" y1="180.0" x2="420" y2="270.0" stroke="blue" opacity="0.56"/>
	<circle class="node" cx="120" cy="30.0" r="20" />
	<circle class="node" cx="120" cy="90.0" r="20" />
	<circle class="node" cx="120" cy="150.0" r="20" />
	<circle class="node" cx="120" cy="210.0" r="20" />
	<g transform="translate(120 270.0)">
            <circle class="node" cx="0" cy="0" r="20" />
            <circle class="node-activation" cx="0" cy="0" r="20.0" fill="#48f" />
            <text x="0" y="0" text-anchor="middle">1.00</text>
</g>
	<g transform="translate(270 120.0)">
            <circle class="node" cx="0" cy="0" r="20" />
            <circle class="node-activation" cx="0" cy="0" r="5.2" fill="#48f" />
            <text x="0" y="0" text-anchor="middle">0.26</text>
</g>
	<g transform="translate(270 180.0)">
            <circle class="node" cx="0" cy="0" r="20" />
            <circle class="node-activation" cx="0" cy="0" r="9.5" fill="#48f" />
            <text x="0" y="0" text-anchor="middle">0.47</text>
</g>
	<g transform="translate(420 30.0)">
            <circle class="node" cx="0" cy="0" r="20" />
            <circle class="node-activation" cx="0" cy="0" r="12.6" fill="#48f" />
            <text x="0" y="0" text-anchor="middle">0.63</text>
</g>
	<g transform="translate(420 90.0)">
            <circle class="node" cx="0" cy="0" r="20" />
            <circle class="node-activation" cx="0" cy="0" r="5.7" fill="#48f" />
            <text x="0" y="0" text-anchor="middle">0.29</text>
</g>
	<g transform="translate(420 150.0)">
            <circle class="node" cx="0" cy="0" r="20" />
            <circle class="node-activation" cx="0" cy="0" r="0.5" fill="#48f" />
            <text x="0" y="0" text-anchor="middle">0.02</text>
</g>
	<g transform="translate(420 210.0)">
            <circle class="node" cx="0" cy="0" r="20" />
            <circle class="node-activation" cx="0" cy="0" r="0.9" fill="#48f" />
            <text x="0" y="0" text-anchor="middle">0.04</text>
</g>
	<g transform="translate(420 270.0)">
            <circle class="node" cx="0" cy="0" r="20" />
            <circle class="node-activation" cx="0" cy="0" r="0.3" fill="#48f" />
            <text x="0" y="0" text-anchor="middle">0.01</text>
</g>
</g>
<script>
	const clickBoxes = document.querySelectorAll('.click-box');
	const activations = document.querySelectorAll('.activation');
	const weights = document.querySelector('.weights');
	let selectedBox = -1;

	const selectBox = (i) => {
		selectedBox = i;
		activations[i].style.display = 'block';
		weights.style.display = 'none';
	};

	clickBoxes.forEach((box, index) => {
		const handleEvent = () => {
			if (selectedBox === -1) {
				selectBox(index);
			} else if (selectedBox === index) {
				// Deselect the already selected box
				activations[index].style.display = 'none';
				weights.style.display = 'block';
				selectedBox = -1;
			} else {
				// Deselect the previously selected box and select the new one
				activations[selectedBox].style.display = 'none';
				selectBox(index);
			}
		};

		box.addEventListener('click', handleEvent);
		box.addEventListener('touchstart', (e) => {
			e.preventDefault(); // Prevents touch from triggering click
			handleEvent();
		});
	});
</script>
</svg>